inDegrees=yes
name=IK-live
DataType=double
version=3
OpenSimVersion=4.1
endheader
time	pelvis_tilt	pelvis_list	pelvis_rotation	pelvis_tx	pelvis_ty	pelvis_tz	hip_flexion_r	hip_adduction_r	hip_rotation_r	knee_angle_r	ankle_angle_r	subtalar_angle_r	mtp_angle_r	hip_flexion_l	hip_adduction_l	hip_rotation_l	knee_angle_l	ankle_angle_l	subtalar_angle_l	mtp_angle_l	lumbar_extension	lumbar_bending	lumbar_rotation	neck_flex	neck_latbend	neck_rot	arm_flex_r	arm_add_r	arm_rot_r	elbow_flex_r	pro_sup_r	wrist_flex_r	wrist_dev_r	arm_flex_l	arm_add_l	arm_rot_l	elbow_flex_l	pro_sup_l	wrist_flex_l	wrist_dev_l
0	-1.015915375594118	15.13064625061284	-260.3991730777344	0.2341366603171506	0.04326292228651554	-1.326684523481465	-22.57061416791937	-1.592195248547443	-3.241786117582775	5.899560354604904	2.451982624139334	1.987972377786656	0	-24.74629716608337	-3.39447889877245	-11.58025052094976	9.793848132074926	-0.4439473045988533	4.250290820099795	0	-21.37711699760957	1.659277491615732	3.206407148933037	0	0	0	2.553766740355426	-15.16913167510133	31.2942257784996	20.439348835002	28.78786520522534	0	1.633630077418129	7.497652749584037	-13.30373244755963	41.01184369131062	20.47450593676652	35.54316448526576	0	1.633630077418129
3.2833323	-1.043994606657339	15.12263774966383	-260.2798614925763	0.2341366603171506	0.04326292228651554	-1.326684523481465	-22.58058675518039	-1.488375267229631	-3.490908542304884	5.899560354604904	2.451982624139334	1.987972377786656	0	-24.71289605741916	-3.245096029977044	-12.01080028842692	9.793848132074926	-0.4439473045988533	4.250290820099795	0	-21.37711699760957	1.659277491615732	3.206407148933037	0	0	0	2.554452697493625	-15.16912871480739	31.29338323888209	20.44323200623249	28.78960265913539	0	1.634341780572514	7.498279153652167	-13.3037621446457	41.01062152949768	20.47838109970419	35.54408889239965	0	1.634341780572514
3.4501781	-1.03783526648562	15.12422538715173	-260.2815579809355	0.2341366603171506	0.04326292228651554	-1.326684523481465	-22.58970283716987	-1.48533694746039	-3.504491506499069	5.899560354604904	2.451982624139334	1.987972377786656	0	-24.70837009080512	-3.245606962210755	-12.01637205590712	9.793848132074926	-0.4439473045988533	4.250290820099795	0	-21.37711699760957	1.659277491615732	3.206407148933037	0	0	0	89.56447931211862	-14.9984811442685	-0.109971322767297	74.99261050027823	44.99192404461679	0	4.996669872365285	89.82599963565509	-15.01522004591718	-0.100212749988584	74.99277284962149	44.99675577564257	0	4.996669872365285
3.6170235	-1.038657826945487	15.11826001309175	-260.3053595857623	0.2341366603171506	0.04326292228651554	-1.326684523481465	-22.58888455047499	-1.484675798826632	-3.511245540228197	5.899560354604904	2.451982624139334	1.987972377786656	0	-24.70728573467842	-3.248063516579207	-12.03289299570418	9.793848132074926	-0.4439473045988533	4.250290820099795	0	-21.37711699760957	1.659277491615732	3.206407148933037	0	0	0	89.56598037220375	-14.99849643492404	-0.1084688048622914	74.99275866869941	44.99235325315946	0	4.997052377133718	89.82659934185509	-15.01506682120425	-0.09884356200106809	74.99291783840658	44.99692820283849	0	4.997052377133718
3.7839067	-1.036063580505097	15.1163121853387	-260.331565833287	0.2341366603171506	0.04326292228651554	-1.326684523481465	-22.58835209884268	-1.479372028317367	-3.495016998525416	5.899560354604904	2.451982624139334	1.987972377786656	0	-24.71691405568553	-3.256749982037767	-12.06336771532924	9.793848132074926	-0.4439473045988533	4.250290820099795	0	-21.37711699760957	1.659277491615732	3.206407148933037	0	0	0	89.5684153384054	-14.99852102601433	-0.1060637670220259	74.99299399035155	44.99300473773151	0	4.997584288123709	89.82757216395419	-15.01482039862708	-0.09665194155357058	74.99314811014864	44.99718992563135	0	4.997584288123709
3.9508327	-1.026839806389331	15.11416323946378	-260.3464994455355	0.2341366603171506	0.04326292228651554	-1.326684523481465	-22.57792743856976	-1.480250238568393	-3.470251590533445	5.899560354604904	2.451982624139334	1.987972377786656	0	-24.71098941307073	-3.262105370330591	-12.06317005363865	9.793848132074926	-0.4439473045988533	4.250290820099795	0	-21.37711699760957	1.659277491615732	3.206407148933037	0	0	0	89.57142315443198	-14.99855088639047	-0.1031691421545515	74.99327320403131	44.99372016633995	0	4.998094020329304	89.82877385220287	-15.01452117355213	-0.09401417882009572	74.99342133201266	44.99747733684992	0	4.998094020329304
